<svg xmlns="http://www.w3.org/2000/svg" width="600" height="600">
  <defs>
    <style>
      path { fill: none; stroke: rgba(255,255,255,0.06); stroke-width: 1; }
    </style>
  </defs>
  <path d="M0,300 Q150,200 300,300 Q450,400 600,300"/>
  <path d="M0,280 Q150,180 300,280 Q450,380 600,280"/>
  <path d="M0,260 Q150,160 300,260 Q450,360 600,260"/>
  <path d="M0,320 Q150,220 300,320 Q450,420 600,320"/>
  <path d="M0,340 Q150,240 300,340 Q450,440 600,340"/>
  <path d="M0,360 Q150,260 300,360 Q450,460 600,360"/>
  <path d="M0,240 Q150,140 300,240 Q450,340 600,240"/>
  <path d="M0,220 Q150,120 300,220 Q450,320 600,220"/>
  <path d="M0,380 Q150,280 300,380 Q450,480 600,380"/>
  <path d="M0,400 Q150,300 300,400 Q450,500 600,400"/>
  <path d="M0,200 Q150,100 300,200 Q450,300 600,200"/>
  <path d="M0,180 Q150,80 300,180 Q450,280 600,180"/>
  <path d="M0,420 Q150,320 300,420 Q450,520 600,420"/>
  <path d="M0,440 Q150,340 300,440 Q450,540 600,440"/>
  <path d="M0,160 Q150,60 300,160 Q450,260 600,160"/>
  <path d="M-50,350 Q100,450 250,350 Q400,250 550,350 Q700,450 750,350"/>
  <path d="M-50,250 Q100,350 250,250 Q400,150 550,250 Q700,350 750,250"/>
  <path d="M-50,150 Q100,250 250,150 Q400,50 550,150 Q700,250 750,150"/>
  <path d="M-50,450 Q100,550 250,450 Q400,350 550,450 Q700,550 750,450"/>
  <path d="M0,500 Q200,400 400,500 Q600,600 800,500"/>
  <path d="M0,100 Q200,0 400,100 Q600,200 800,100"/>
</svg>
